<mxfile host="Electron" agent="Mozilla/5.0 (Macintosh; Intel Mac OS X 10_15_7) AppleWebKit/537.36 (KHTML, like Gecko) draw.io/26.2.15 Chrome/134.0.6998.205 Electron/35.2.1 Safari/537.36" version="26.2.15">
  <diagram name="Page-1" id="NzrMr5zq9rKaClnaXDuF">
    <mxGraphModel dx="1234" dy="898" grid="1" gridSize="10" guides="1" tooltips="1" connect="1" arrows="1" fold="1" page="1" pageScale="1" pageWidth="1169" pageHeight="827" math="0" shadow="0">
      <root>
        <mxCell id="0" />
        <mxCell id="1" parent="0" />
        <mxCell id="hFEI2WQQ1vhx0Jh2LQrT-162" value="" style="group;" parent="1" vertex="1" connectable="0">
          <mxGeometry x="90" y="54.78" width="354.05000000000007" height="284.78999999999996" as="geometry" />
        </mxCell>
        <mxCell id="hFEI2WQQ1vhx0Jh2LQrT-137" value="" style="group;" parent="hFEI2WQQ1vhx0Jh2LQrT-162" vertex="1" connectable="0">
          <mxGeometry width="354.05000000000007" height="139.57" as="geometry" />
        </mxCell>
        <mxCell id="hFEI2WQQ1vhx0Jh2LQrT-102" value="&lt;h1 style=&quot;margin-top: 0px;&quot;&gt;Contiguously Mapped&lt;/h1&gt;" style="text;html=1;whiteSpace=wrap;overflow=hidden;rounded=0;fontSize=9;" parent="hFEI2WQQ1vhx0Jh2LQrT-137" vertex="1">
          <mxGeometry x="10" width="271" height="120" as="geometry" />
        </mxCell>
        <mxCell id="hFEI2WQQ1vhx0Jh2LQrT-1" value="" style="group;fillColor=#60a917;strokeColor=#2D7600;fontColor=#ffffff;container=0;" parent="hFEI2WQQ1vhx0Jh2LQrT-137" vertex="1" connectable="0">
          <mxGeometry x="55.27027027027029" y="35.22" width="72.43243243243244" height="69.56521739130434" as="geometry" />
        </mxCell>
        <mxCell id="hFEI2WQQ1vhx0Jh2LQrT-8" value="" style="group;fillColor=#60a917;strokeColor=#2D7600;fontColor=#ffffff;container=0;" parent="hFEI2WQQ1vhx0Jh2LQrT-137" vertex="1" connectable="0">
          <mxGeometry x="236.34729729729742" y="35.22" width="72.43243243243244" height="69.56521739130434" as="geometry" />
        </mxCell>
        <mxCell id="hFEI2WQQ1vhx0Jh2LQrT-9" value="0xFFFFFFFFFFFF" style="text;html=1;align=center;verticalAlign=middle;whiteSpace=wrap;rounded=0;container=0;" parent="hFEI2WQQ1vhx0Jh2LQrT-137" vertex="1">
          <mxGeometry x="263.5094594594595" y="113.48086956521738" width="90.54054054054058" height="26.08695652173913" as="geometry" />
        </mxCell>
        <mxCell id="hFEI2WQQ1vhx0Jh2LQrT-10" style="edgeStyle=orthogonalEdgeStyle;rounded=0;orthogonalLoop=1;jettySize=auto;html=1;exitX=0.75;exitY=1;exitDx=0;exitDy=0;entryX=0.5;entryY=0;entryDx=0;entryDy=0;endArrow=none;startFill=0;" parent="hFEI2WQQ1vhx0Jh2LQrT-137" source="hFEI2WQQ1vhx0Jh2LQrT-43" target="hFEI2WQQ1vhx0Jh2LQrT-9" edge="1">
          <mxGeometry relative="1" as="geometry" />
        </mxCell>
        <mxCell id="hFEI2WQQ1vhx0Jh2LQrT-11" style="edgeStyle=orthogonalEdgeStyle;rounded=0;orthogonalLoop=1;jettySize=auto;html=1;exitX=0;exitY=1;exitDx=0;exitDy=0;strokeColor=default;endArrow=none;startFill=0;" parent="hFEI2WQQ1vhx0Jh2LQrT-137" source="hFEI2WQQ1vhx0Jh2LQrT-12" edge="1">
          <mxGeometry relative="1" as="geometry">
            <mxPoint x="55.27027027027029" y="113.48086956521738" as="targetPoint" />
          </mxGeometry>
        </mxCell>
        <mxCell id="hFEI2WQQ1vhx0Jh2LQrT-12" value="" style="rounded=0;whiteSpace=wrap;html=1;fillColor=#60a917;strokeColor=#2D7600;fontColor=#ffffff;container=0;" parent="hFEI2WQQ1vhx0Jh2LQrT-137" vertex="1">
          <mxGeometry x="55.27027027027029" y="35.22" width="18.10810810810811" height="69.56521739130434" as="geometry" />
        </mxCell>
        <mxCell id="hFEI2WQQ1vhx0Jh2LQrT-13" value="" style="rounded=0;whiteSpace=wrap;html=1;fillColor=#60a917;strokeColor=#2D7600;fontColor=#ffffff;container=0;" parent="hFEI2WQQ1vhx0Jh2LQrT-137" vertex="1">
          <mxGeometry x="73.37837837837841" y="35.22" width="18.10810810810811" height="69.56521739130434" as="geometry" />
        </mxCell>
        <mxCell id="hFEI2WQQ1vhx0Jh2LQrT-14" value="" style="rounded=0;whiteSpace=wrap;html=1;fillColor=#60a917;strokeColor=#2D7600;fontColor=#ffffff;container=0;" parent="hFEI2WQQ1vhx0Jh2LQrT-137" vertex="1">
          <mxGeometry x="91.48648648648651" y="35.22" width="18.10810810810811" height="69.56521739130434" as="geometry" />
        </mxCell>
        <mxCell id="hFEI2WQQ1vhx0Jh2LQrT-15" value="" style="rounded=0;whiteSpace=wrap;html=1;fillColor=#60a917;strokeColor=#2D7600;fontColor=#ffffff;container=0;" parent="hFEI2WQQ1vhx0Jh2LQrT-137" vertex="1">
          <mxGeometry x="109.59459459459461" y="35.22" width="18.10810810810811" height="69.56521739130434" as="geometry" />
        </mxCell>
        <mxCell id="hFEI2WQQ1vhx0Jh2LQrT-16" value="" style="rounded=0;whiteSpace=wrap;html=1;fillColor=#60a917;strokeColor=#2D7600;fontColor=#ffffff;container=0;" parent="hFEI2WQQ1vhx0Jh2LQrT-137" vertex="1">
          <mxGeometry x="127.70270270270274" y="35.22" width="18.10810810810811" height="69.56521739130434" as="geometry" />
        </mxCell>
        <mxCell id="hFEI2WQQ1vhx0Jh2LQrT-40" value="" style="rounded=0;whiteSpace=wrap;html=1;fillColor=#60a917;strokeColor=#2D7600;fontColor=#ffffff;container=0;" parent="hFEI2WQQ1vhx0Jh2LQrT-137" vertex="1">
          <mxGeometry x="236.34729729729742" y="35.22" width="18.10810810810811" height="69.56521739130434" as="geometry" />
        </mxCell>
        <mxCell id="hFEI2WQQ1vhx0Jh2LQrT-41" value="" style="rounded=0;whiteSpace=wrap;html=1;fillColor=#60a917;strokeColor=#2D7600;fontColor=#ffffff;container=0;" parent="hFEI2WQQ1vhx0Jh2LQrT-137" vertex="1">
          <mxGeometry x="254.45540540540566" y="35.22" width="18.10810810810811" height="69.56521739130434" as="geometry" />
        </mxCell>
        <mxCell id="hFEI2WQQ1vhx0Jh2LQrT-42" value="" style="rounded=0;whiteSpace=wrap;html=1;fillColor=#60a917;strokeColor=#2D7600;fontColor=#ffffff;container=0;" parent="hFEI2WQQ1vhx0Jh2LQrT-137" vertex="1">
          <mxGeometry x="272.56351351351367" y="35.22" width="18.10810810810811" height="69.56521739130434" as="geometry" />
        </mxCell>
        <mxCell id="hFEI2WQQ1vhx0Jh2LQrT-43" value="" style="rounded=0;whiteSpace=wrap;html=1;fillColor=#60a917;strokeColor=#2D7600;fontColor=#ffffff;container=0;" parent="hFEI2WQQ1vhx0Jh2LQrT-137" vertex="1">
          <mxGeometry x="290.6716216216217" y="35.22" width="18.10810810810811" height="69.56521739130434" as="geometry" />
        </mxCell>
        <mxCell id="hFEI2WQQ1vhx0Jh2LQrT-73" value="0x000000000000" style="text;html=1;align=center;verticalAlign=middle;resizable=0;points=[];autosize=1;strokeColor=none;fillColor=none;" parent="hFEI2WQQ1vhx0Jh2LQrT-137" vertex="1">
          <mxGeometry y="109.57" width="120" height="30" as="geometry" />
        </mxCell>
        <mxCell id="hFEI2WQQ1vhx0Jh2LQrT-74" value="" style="group;fillColor=#60a917;strokeColor=#2D7600;fontColor=#ffffff;container=0;" parent="hFEI2WQQ1vhx0Jh2LQrT-137" vertex="1" connectable="0">
          <mxGeometry x="145.81027027027028" y="35.22" width="72.43243243243244" height="69.56521739130434" as="geometry" />
        </mxCell>
        <mxCell id="hFEI2WQQ1vhx0Jh2LQrT-76" value="" style="rounded=0;whiteSpace=wrap;html=1;fillColor=#dae8fc;strokeColor=#6c8ebf;container=0;" parent="hFEI2WQQ1vhx0Jh2LQrT-137" vertex="1">
          <mxGeometry x="145.81027027027028" y="35.22" width="18.10810810810811" height="69.56521739130434" as="geometry" />
        </mxCell>
        <mxCell id="hFEI2WQQ1vhx0Jh2LQrT-77" value="" style="rounded=0;whiteSpace=wrap;html=1;fillColor=#dae8fc;strokeColor=#6c8ebf;container=0;" parent="hFEI2WQQ1vhx0Jh2LQrT-137" vertex="1">
          <mxGeometry x="163.9183783783784" y="35.22" width="18.10810810810811" height="69.56521739130434" as="geometry" />
        </mxCell>
        <mxCell id="hFEI2WQQ1vhx0Jh2LQrT-78" value="" style="rounded=0;whiteSpace=wrap;html=1;fillColor=#dae8fc;strokeColor=#6c8ebf;container=0;" parent="hFEI2WQQ1vhx0Jh2LQrT-137" vertex="1">
          <mxGeometry x="182.02648648648653" y="35.22" width="18.10810810810811" height="69.56521739130434" as="geometry" />
        </mxCell>
        <mxCell id="hFEI2WQQ1vhx0Jh2LQrT-79" value="" style="rounded=0;whiteSpace=wrap;html=1;fillColor=#dae8fc;strokeColor=#6c8ebf;container=0;" parent="hFEI2WQQ1vhx0Jh2LQrT-137" vertex="1">
          <mxGeometry x="200.1345945945946" y="35.22" width="18.10810810810811" height="69.56521739130434" as="geometry" />
        </mxCell>
        <mxCell id="hFEI2WQQ1vhx0Jh2LQrT-80" value="" style="rounded=0;whiteSpace=wrap;html=1;fillColor=#60a917;strokeColor=#2D7600;fontColor=#ffffff;container=0;" parent="hFEI2WQQ1vhx0Jh2LQrT-137" vertex="1">
          <mxGeometry x="218.24270270270273" y="35.22" width="18.10810810810811" height="69.56521739130434" as="geometry" />
        </mxCell>
        <mxCell id="hFEI2WQQ1vhx0Jh2LQrT-113" value="libc" style="text;html=1;align=center;verticalAlign=middle;whiteSpace=wrap;rounded=0;rotation=90;" parent="hFEI2WQQ1vhx0Jh2LQrT-137" vertex="1">
          <mxGeometry x="161.08" y="55" width="60" height="30" as="geometry" />
        </mxCell>
        <mxCell id="hFEI2WQQ1vhx0Jh2LQrT-139" value="&lt;h1 style=&quot;margin-top: 0px;&quot;&gt;Non-Contiguously Mapped&lt;/h1&gt;" style="text;html=1;whiteSpace=wrap;overflow=hidden;rounded=0;fontSize=9;" parent="1" vertex="1">
          <mxGeometry x="460" y="60" width="271" height="120" as="geometry" />
        </mxCell>
        <mxCell id="hFEI2WQQ1vhx0Jh2LQrT-140" value="" style="group;fillColor=#60a917;strokeColor=#2D7600;fontColor=#ffffff;container=0;" parent="1" vertex="1" connectable="0">
          <mxGeometry x="505.2702702702703" y="95.22" width="72.43243243243244" height="69.56521739130434" as="geometry" />
        </mxCell>
        <mxCell id="hFEI2WQQ1vhx0Jh2LQrT-141" value="" style="group;fillColor=#60a917;strokeColor=#2D7600;fontColor=#ffffff;container=0;" parent="1" vertex="1" connectable="0">
          <mxGeometry x="686.3472972972975" y="95.22" width="72.43243243243244" height="69.56521739130434" as="geometry" />
        </mxCell>
        <mxCell id="hFEI2WQQ1vhx0Jh2LQrT-142" value="0xFFFFFFFFFFFF" style="text;html=1;align=center;verticalAlign=middle;whiteSpace=wrap;rounded=0;container=0;" parent="1" vertex="1">
          <mxGeometry x="713.5094594594595" y="173.48086956521743" width="90.54054054054058" height="26.08695652173913" as="geometry" />
        </mxCell>
        <mxCell id="hFEI2WQQ1vhx0Jh2LQrT-143" style="edgeStyle=orthogonalEdgeStyle;rounded=0;orthogonalLoop=1;jettySize=auto;html=1;exitX=0.75;exitY=1;exitDx=0;exitDy=0;entryX=0.5;entryY=0;entryDx=0;entryDy=0;endArrow=none;startFill=0;" parent="1" source="hFEI2WQQ1vhx0Jh2LQrT-153" target="hFEI2WQQ1vhx0Jh2LQrT-142" edge="1">
          <mxGeometry relative="1" as="geometry" />
        </mxCell>
        <mxCell id="hFEI2WQQ1vhx0Jh2LQrT-144" style="edgeStyle=orthogonalEdgeStyle;rounded=0;orthogonalLoop=1;jettySize=auto;html=1;exitX=0;exitY=1;exitDx=0;exitDy=0;strokeColor=default;endArrow=none;startFill=0;" parent="1" source="hFEI2WQQ1vhx0Jh2LQrT-145" edge="1">
          <mxGeometry relative="1" as="geometry">
            <mxPoint x="505.2702702702703" y="173.48086956521743" as="targetPoint" />
          </mxGeometry>
        </mxCell>
        <mxCell id="hFEI2WQQ1vhx0Jh2LQrT-145" value="" style="rounded=0;whiteSpace=wrap;html=1;fillColor=#60a917;strokeColor=#2D7600;fontColor=#ffffff;container=0;" parent="1" vertex="1">
          <mxGeometry x="505.2702702702703" y="95.22" width="18.10810810810811" height="69.56521739130434" as="geometry" />
        </mxCell>
        <mxCell id="hFEI2WQQ1vhx0Jh2LQrT-146" value="" style="rounded=0;whiteSpace=wrap;html=1;fillColor=#60a917;strokeColor=#2D7600;fontColor=#ffffff;container=0;" parent="1" vertex="1">
          <mxGeometry x="523.3783783783784" y="95.22" width="18.10810810810811" height="69.56521739130434" as="geometry" />
        </mxCell>
        <mxCell id="hFEI2WQQ1vhx0Jh2LQrT-147" value="" style="rounded=0;whiteSpace=wrap;html=1;fillColor=#dae8fc;strokeColor=#6c8ebf;container=0;" parent="1" vertex="1">
          <mxGeometry x="541.4864864864865" y="95.22" width="18.10810810810811" height="69.56521739130434" as="geometry" />
        </mxCell>
        <mxCell id="hFEI2WQQ1vhx0Jh2LQrT-148" value="" style="rounded=0;whiteSpace=wrap;html=1;fillColor=#60a917;strokeColor=#2D7600;fontColor=#ffffff;container=0;" parent="1" vertex="1">
          <mxGeometry x="559.5945945945946" y="95.22" width="18.10810810810811" height="69.56521739130434" as="geometry" />
        </mxCell>
        <mxCell id="hFEI2WQQ1vhx0Jh2LQrT-149" value="" style="rounded=0;whiteSpace=wrap;html=1;fillColor=#60a917;strokeColor=#2D7600;fontColor=#ffffff;container=0;" parent="1" vertex="1">
          <mxGeometry x="577.7027027027027" y="95.22" width="18.10810810810811" height="69.56521739130434" as="geometry" />
        </mxCell>
        <mxCell id="hFEI2WQQ1vhx0Jh2LQrT-150" value="" style="rounded=0;whiteSpace=wrap;html=1;fillColor=#60a917;strokeColor=#2D7600;fontColor=#ffffff;container=0;" parent="1" vertex="1">
          <mxGeometry x="686.3472972972975" y="95.22" width="18.10810810810811" height="69.56521739130434" as="geometry" />
        </mxCell>
        <mxCell id="hFEI2WQQ1vhx0Jh2LQrT-151" value="" style="rounded=0;whiteSpace=wrap;html=1;fillColor=#60a917;strokeColor=#2D7600;fontColor=#ffffff;container=0;" parent="1" vertex="1">
          <mxGeometry x="704.4554054054056" y="95.22" width="18.10810810810811" height="69.56521739130434" as="geometry" />
        </mxCell>
        <mxCell id="hFEI2WQQ1vhx0Jh2LQrT-152" value="" style="rounded=0;whiteSpace=wrap;html=1;fillColor=#dae8fc;strokeColor=#6c8ebf;container=0;" parent="1" vertex="1">
          <mxGeometry x="722.5635135135137" y="95.22" width="18.10810810810811" height="69.56521739130434" as="geometry" />
        </mxCell>
        <mxCell id="hFEI2WQQ1vhx0Jh2LQrT-153" value="" style="rounded=0;whiteSpace=wrap;html=1;fillColor=#60a917;strokeColor=#2D7600;fontColor=#ffffff;container=0;" parent="1" vertex="1">
          <mxGeometry x="740.6716216216216" y="95.22" width="18.10810810810811" height="69.56521739130434" as="geometry" />
        </mxCell>
        <mxCell id="hFEI2WQQ1vhx0Jh2LQrT-154" value="0x000000000000" style="text;html=1;align=center;verticalAlign=middle;resizable=0;points=[];autosize=1;strokeColor=none;fillColor=none;" parent="1" vertex="1">
          <mxGeometry x="450" y="169.57" width="120" height="30" as="geometry" />
        </mxCell>
        <mxCell id="hFEI2WQQ1vhx0Jh2LQrT-155" value="" style="group;fillColor=#60a917;strokeColor=#2D7600;fontColor=#ffffff;container=0;" parent="1" vertex="1" connectable="0">
          <mxGeometry x="595.8102702702703" y="95.22" width="72.43243243243244" height="69.56521739130434" as="geometry" />
        </mxCell>
        <mxCell id="hFEI2WQQ1vhx0Jh2LQrT-156" value="" style="rounded=0;whiteSpace=wrap;html=1;fillColor=light-dark(#61a916, #1d293b);strokeColor=light-dark(#2e7601, #5c79a3);container=0;" parent="1" vertex="1">
          <mxGeometry x="595.8102702702703" y="95.22" width="18.10810810810811" height="69.56521739130434" as="geometry" />
        </mxCell>
        <mxCell id="hFEI2WQQ1vhx0Jh2LQrT-157" value="" style="rounded=0;whiteSpace=wrap;html=1;fillColor=light-dark(#61a916, #1d293b);strokeColor=light-dark(#2e7601, #5c79a3);container=0;" parent="1" vertex="1">
          <mxGeometry x="613.9183783783784" y="95.22" width="18.10810810810811" height="69.56521739130434" as="geometry" />
        </mxCell>
        <mxCell id="hFEI2WQQ1vhx0Jh2LQrT-158" value="" style="rounded=0;whiteSpace=wrap;html=1;fillColor=#dae8fc;strokeColor=#6c8ebf;container=0;" parent="1" vertex="1">
          <mxGeometry x="632.0264864864865" y="95.22" width="18.10810810810811" height="69.56521739130434" as="geometry" />
        </mxCell>
        <mxCell id="hFEI2WQQ1vhx0Jh2LQrT-159" value="" style="rounded=0;whiteSpace=wrap;html=1;fillColor=#dae8fc;strokeColor=#6c8ebf;container=0;" parent="1" vertex="1">
          <mxGeometry x="650.1345945945945" y="95.22" width="18.10810810810811" height="69.56521739130434" as="geometry" />
        </mxCell>
        <mxCell id="hFEI2WQQ1vhx0Jh2LQrT-160" value="" style="rounded=0;whiteSpace=wrap;html=1;fillColor=#60a917;strokeColor=#2D7600;fontColor=#ffffff;container=0;" parent="1" vertex="1">
          <mxGeometry x="668.2427027027027" y="95.22" width="18.10810810810811" height="69.56521739130434" as="geometry" />
        </mxCell>
      </root>
    </mxGraphModel>
  </diagram>
</mxfile>
